<?xml version="1.0" encoding="UTF-8" standalone="no"?>
<!-- Created with Inkscape (http://www.inkscape.org/) -->

<svg
   xmlns:dc="http://purl.org/dc/elements/1.1/"
   xmlns:cc="http://creativecommons.org/ns#"
   xmlns:rdf="http://www.w3.org/1999/02/22-rdf-syntax-ns#"
   xmlns:svg="http://www.w3.org/2000/svg"
   xmlns="http://www.w3.org/2000/svg"
   xmlns:sodipodi="http://sodipodi.sourceforge.net/DTD/sodipodi-0.dtd"
   xmlns:inkscape="http://www.inkscape.org/namespaces/inkscape"
   width="300"
   height="300"
   id="svg2"
   version="1.1"
   inkscape:version="0.47 r22583"
   sodipodi:docname="令-bronze.svg">
  <defs
     id="defs4">
    <inkscape:perspective
       sodipodi:type="inkscape:persp3d"
       inkscape:vp_x="0 : 526.18109 : 1"
       inkscape:vp_y="0 : 1000 : 0"
       inkscape:vp_z="744.09448 : 526.18109 : 1"
       inkscape:persp3d-origin="372.04724 : 350.78739 : 1"
       id="perspective10" />
    <inkscape:perspective
       id="perspective2824"
       inkscape:persp3d-origin="0.5 : 0.33333333 : 1"
       inkscape:vp_z="1 : 0.5 : 1"
       inkscape:vp_y="0 : 1000 : 0"
       inkscape:vp_x="0 : 0.5 : 1"
       sodipodi:type="inkscape:persp3d" />
    <inkscape:perspective
       id="perspective2861"
       inkscape:persp3d-origin="0.5 : 0.33333333 : 1"
       inkscape:vp_z="1 : 0.5 : 1"
       inkscape:vp_y="0 : 1000 : 0"
       inkscape:vp_x="0 : 0.5 : 1"
       sodipodi:type="inkscape:persp3d" />
    <inkscape:perspective
       id="perspective2898"
       inkscape:persp3d-origin="0.5 : 0.33333333 : 1"
       inkscape:vp_z="1 : 0.5 : 1"
       inkscape:vp_y="0 : 1000 : 0"
       inkscape:vp_x="0 : 0.5 : 1"
       sodipodi:type="inkscape:persp3d" />
    <inkscape:perspective
       id="perspective2935"
       inkscape:persp3d-origin="0.5 : 0.33333333 : 1"
       inkscape:vp_z="1 : 0.5 : 1"
       inkscape:vp_y="0 : 1000 : 0"
       inkscape:vp_x="0 : 0.5 : 1"
       sodipodi:type="inkscape:persp3d" />
    <inkscape:perspective
       id="perspective2973"
       inkscape:persp3d-origin="0.5 : 0.33333333 : 1"
       inkscape:vp_z="1 : 0.5 : 1"
       inkscape:vp_y="0 : 1000 : 0"
       inkscape:vp_x="0 : 0.5 : 1"
       sodipodi:type="inkscape:persp3d" />
    <inkscape:perspective
       id="perspective3010"
       inkscape:persp3d-origin="0.5 : 0.33333333 : 1"
       inkscape:vp_z="1 : 0.5 : 1"
       inkscape:vp_y="0 : 1000 : 0"
       inkscape:vp_x="0 : 0.5 : 1"
       sodipodi:type="inkscape:persp3d" />
    <inkscape:perspective
       id="perspective3051"
       inkscape:persp3d-origin="0.5 : 0.33333333 : 1"
       inkscape:vp_z="1 : 0.5 : 1"
       inkscape:vp_y="0 : 1000 : 0"
       inkscape:vp_x="0 : 0.5 : 1"
       sodipodi:type="inkscape:persp3d" />
    <inkscape:perspective
       id="perspective3088"
       inkscape:persp3d-origin="0.5 : 0.33333333 : 1"
       inkscape:vp_z="1 : 0.5 : 1"
       inkscape:vp_y="0 : 1000 : 0"
       inkscape:vp_x="0 : 0.5 : 1"
       sodipodi:type="inkscape:persp3d" />
  </defs>
  <sodipodi:namedview
     id="base"
     pagecolor="#ffffff"
     bordercolor="#666666"
     borderopacity="1.0"
     inkscape:pageopacity="0.0"
     inkscape:pageshadow="2"
     inkscape:zoom="1.979899"
     inkscape:cx="141.18824"
     inkscape:cy="147.95872"
     inkscape:document-units="px"
     inkscape:current-layer="layer1"
     showgrid="false"
     inkscape:window-width="1280"
     inkscape:window-height="950"
     inkscape:window-x="0"
     inkscape:window-y="25"
     inkscape:window-maximized="1" />
  <metadata
     id="metadata7">
    <rdf:RDF>
      <cc:Work
         rdf:about="">
        <dc:format>image/svg+xml</dc:format>
        <dc:type
           rdf:resource="http://purl.org/dc/dcmitype/StillImage" />
        <dc:title></dc:title>
      </cc:Work>
    </rdf:RDF>
  </metadata>
  <g
     inkscape:label="Calque 1"
     inkscape:groupmode="layer"
     id="layer1"
     transform="translate(0,-752.36218)">
    <path
       style="fill:#000000"
       d="m 159.68105,1033.7305 24.13813,-40.83946 c 5.94936,-11.11917 -77.33436,23.30586 -98.560578,16.93766 -6.072181,-2.1234 -7.079483,-5.548 -6.123403,-20.81823 3.829098,-37.04335 124.352001,-63.21559 89.645401,-119.31532 -10.32083,-13.89565 -8.77727,-19.54988 4.99389,-18.29314 14.78499,1.34926 21.50612,9.87751 23.15494,29.38064 0.83639,9.89327 3.0287,26.78294 4.87181,37.5326 2.52673,14.73679 1.94313,20.73103 -2.37236,24.36681 -25.40176,16.94917 -82.25804,10.1551 -94.21866,38.52951 2.38155,26.10173 73.77942,-9.76477 95.91551,-12.32765 13.16383,0 13.16835,0.009 7.36758,15.6833 -10.55528,27.94228 -3.96681,40.41468 -38.07986,49.73578 -10.11007,2.3117 -10.7324,2.2785 -10.7324,-0.5725 z m 11.52084,-92.22214 c 9.15586,-2.11658 16.33968,-11.97582 13.10726,-17.9887 -1.71553,-3.19122 -3.90205,-5.529 -4.85893,-5.19508 -6.89838,6.317 -11.81545,14.51541 -17.87313,21.62401 -2.60116,2.86003 1.27963,3.48894 9.6248,1.55977 z M 70.101087,883.7461 c 24.142121,-35.80131 61.653243,-65.11787 100.704433,-83.79207 9.23683,-4.04253 10.7912,-4.20836 21.20866,-2.26275 6.18273,1.15472 13.06585,3.91372 15.29582,6.13111 47.88852,47.61849 59.03584,63.58017 49.98569,71.5737 -23.52921,9.85232 -21.56928,-23.12529 -32.92662,-30.50446 -5.93273,-2.8314 -17.53532,-2.88246 -84.08052,-0.37005 -23.19732,2.11242 -34.1086,28.3948 -53.499887,37.79091 -12.883384,3.90919 -14.013393,4.00627 -16.687576,1.43361 z M 212.66927,831.1303 c 0,-1.04312 -4.96764,-5.49012 -11.03921,-9.88221 -6.07157,-4.39209 -11.03921,-9.02916 -11.03921,-10.30461 0,-4.88298 -7.21945,-1.88752 -23.19623,9.62446 -9.11498,6.56775 -16.57093,12.28809 -16.56876,12.71185 0.002,0.42376 13.91781,0.54022 30.92367,0.25879 20.74037,-0.34323 30.91974,-1.13608 30.91974,-2.40828 z"
       id="path3094"
       sodipodi:nodetypes="cccccssscccccccscccccssccccccsssssc" />
  </g>
</svg>
