<?xml version="1.0" encoding="UTF-8" standalone="no"?>
<!-- Created with Inkscape (http://www.inkscape.org/) -->
<svg
   xmlns:dc="http://purl.org/dc/elements/1.1/"
   xmlns:cc="http://web.resource.org/cc/"
   xmlns:rdf="http://www.w3.org/1999/02/22-rdf-syntax-ns#"
   xmlns:svg="http://www.w3.org/2000/svg"
   xmlns="http://www.w3.org/2000/svg"
   xmlns:sodipodi="http://sodipodi.sourceforge.net/DTD/sodipodi-0.dtd"
   xmlns:inkscape="http://www.inkscape.org/namespaces/inkscape"
   id="svg2178"
   sodipodi:version="0.32"
   inkscape:version="0.45.1"
   width="300"
   height="300"
   version="1.0"
   sodipodi:docbase="C:\Documents and Settings\L'équipage\Mes documents\Bertrand\Gifs"
   sodipodi:docname="天-oracle.svg"
   inkscape:output_extension="org.inkscape.output.svg.inkscape">
  <metadata
     id="metadata2183">
    <rdf:RDF>
      <cc:Work
         rdf:about="">
        <dc:format>image/svg+xml</dc:format>
        <dc:type
           rdf:resource="http://purl.org/dc/dcmitype/StillImage" />
      </cc:Work>
    </rdf:RDF>
  </metadata>
  <defs
     id="defs2181" />
  <sodipodi:namedview
     inkscape:window-height="721"
     inkscape:window-width="1024"
     inkscape:pageshadow="2"
     inkscape:pageopacity="0.0"
     guidetolerance="10.0"
     gridtolerance="10.0"
     objecttolerance="10.0"
     borderopacity="1.0"
     bordercolor="#666666"
     pagecolor="#ffffff"
     id="base"
     width="300px"
     height="300px"
     inkscape:showpageshadow="false"
     borderlayer="false"
     inkscape:zoom="1"
     inkscape:cx="29.5"
     inkscape:cy="129.03299"
     inkscape:window-x="-4"
     inkscape:window-y="-4"
     inkscape:current-layer="svg2178" />
  <path
     style="fill:#000000"
     d="M 172.01288,294.42089 C 160.76975,297.45019 153.15781,238.4612 141.51359,211.22323 C 129.82381,212.47989 122.63258,238.75688 120.98537,251.55075 C 117.17265,262.66099 110.74196,285.78285 98.04004,286.14962 C 96.384338,262.06318 106.18869,238.81841 112.50397,216.08967 C 119.53524,204.84655 128.469,189.10375 127.95354,174.6 C 127.72287,161.16993 127.81535,138.43362 107.31773,151.04779 C 99.664452,153.64546 75.954541,166.34536 78.779211,152.58359 C 95.159044,143.90589 110.65713,131.96154 120.53659,117.09859 C 126.67352,102.74266 116.53252,89.702833 99.644516,95.618715 C 84.933323,95.752819 78.370907,77.54056 97.361398,80.005869 C 111.23092,83.779244 133.68109,70.933222 112.56558,61.695594 C 92.20771,59.315938 84.351849,37.734373 93.182997,22.257713 C 97.301683,17.82346 96.843359,6.5298727 104.81711,7.5483228 C 121.28777,7.0679699 139.31099,8.4715309 152.27988,18.679233 C 159.45325,34.072868 146.58055,48.74315 136.33299,59.342034 C 134.80149,78.948309 153.20552,78.565356 168.55228,78.371847 C 190.08212,85.343353 162.91585,95.273285 152.03088,92.272429 C 133.91517,100.14712 144.40795,127.65016 161.617,132.94227 C 171.94356,139.97537 181.20415,148.17368 190.54643,156.24892 C 177.68836,158.15248 167.18707,151.84326 156.91021,145.65848 C 136.81961,132.27475 153.01092,165.42727 149.24535,175.00194 C 148.87436,191.94752 160.46746,205.66185 166.61682,220.80154 C 176.04561,246.80496 183.526,291.31884 172.01288,294.42089 z M 129.22808,44.227807 C 147.44953,28.152899 101.67779,12.3487 108.73145,35.086238 C 110.4292,42.955747 121.33213,51.3124 129.22808,44.227807 z "
     id="path4313"
     sodipodi:nodetypes="ccccccccccccccccccccccczccc" />
</svg>
