<?xml version="1.0" encoding="UTF-8" standalone="no"?>
<!-- Created with Inkscape (http://www.inkscape.org/) -->

<svg
   xmlns:dc="http://purl.org/dc/elements/1.1/"
   xmlns:cc="http://creativecommons.org/ns#"
   xmlns:rdf="http://www.w3.org/1999/02/22-rdf-syntax-ns#"
   xmlns:svg="http://www.w3.org/2000/svg"
   xmlns="http://www.w3.org/2000/svg"
   xmlns:sodipodi="http://sodipodi.sourceforge.net/DTD/sodipodi-0.dtd"
   xmlns:inkscape="http://www.inkscape.org/namespaces/inkscape"
   width="300"
   height="300"
   id="svg2"
   version="1.1"
   inkscape:version="0.47 r22583"
   sodipodi:docname="兔-bronze.svg">
  <defs
     id="defs4">
    <inkscape:perspective
       sodipodi:type="inkscape:persp3d"
       inkscape:vp_x="0 : 526.18109 : 1"
       inkscape:vp_y="0 : 1000 : 0"
       inkscape:vp_z="744.09448 : 526.18109 : 1"
       inkscape:persp3d-origin="372.04724 : 350.78739 : 1"
       id="perspective10" />
    <inkscape:perspective
       id="perspective2824"
       inkscape:persp3d-origin="0.5 : 0.33333333 : 1"
       inkscape:vp_z="1 : 0.5 : 1"
       inkscape:vp_y="0 : 1000 : 0"
       inkscape:vp_x="0 : 0.5 : 1"
       sodipodi:type="inkscape:persp3d" />
    <inkscape:perspective
       id="perspective2863"
       inkscape:persp3d-origin="0.5 : 0.33333333 : 1"
       inkscape:vp_z="1 : 0.5 : 1"
       inkscape:vp_y="0 : 1000 : 0"
       inkscape:vp_x="0 : 0.5 : 1"
       sodipodi:type="inkscape:persp3d" />
    <inkscape:perspective
       id="perspective2879"
       inkscape:persp3d-origin="0.5 : 0.33333333 : 1"
       inkscape:vp_z="1 : 0.5 : 1"
       inkscape:vp_y="0 : 1000 : 0"
       inkscape:vp_x="0 : 0.5 : 1"
       sodipodi:type="inkscape:persp3d" />
    <inkscape:perspective
       id="perspective2916"
       inkscape:persp3d-origin="0.5 : 0.33333333 : 1"
       inkscape:vp_z="1 : 0.5 : 1"
       inkscape:vp_y="0 : 1000 : 0"
       inkscape:vp_x="0 : 0.5 : 1"
       sodipodi:type="inkscape:persp3d" />
    <inkscape:perspective
       id="perspective2932"
       inkscape:persp3d-origin="0.5 : 0.33333333 : 1"
       inkscape:vp_z="1 : 0.5 : 1"
       inkscape:vp_y="0 : 1000 : 0"
       inkscape:vp_x="0 : 0.5 : 1"
       sodipodi:type="inkscape:persp3d" />
    <inkscape:perspective
       id="perspective2970"
       inkscape:persp3d-origin="0.5 : 0.33333333 : 1"
       inkscape:vp_z="1 : 0.5 : 1"
       inkscape:vp_y="0 : 1000 : 0"
       inkscape:vp_x="0 : 0.5 : 1"
       sodipodi:type="inkscape:persp3d" />
    <inkscape:perspective
       id="perspective3007"
       inkscape:persp3d-origin="0.5 : 0.33333333 : 1"
       inkscape:vp_z="1 : 0.5 : 1"
       inkscape:vp_y="0 : 1000 : 0"
       inkscape:vp_x="0 : 0.5 : 1"
       sodipodi:type="inkscape:persp3d" />
    <inkscape:perspective
       id="perspective3046"
       inkscape:persp3d-origin="0.5 : 0.33333333 : 1"
       inkscape:vp_z="1 : 0.5 : 1"
       inkscape:vp_y="0 : 1000 : 0"
       inkscape:vp_x="0 : 0.5 : 1"
       sodipodi:type="inkscape:persp3d" />
    <inkscape:perspective
       id="perspective3083"
       inkscape:persp3d-origin="0.5 : 0.33333333 : 1"
       inkscape:vp_z="1 : 0.5 : 1"
       inkscape:vp_y="0 : 1000 : 0"
       inkscape:vp_x="0 : 0.5 : 1"
       sodipodi:type="inkscape:persp3d" />
    <inkscape:perspective
       id="perspective3120"
       inkscape:persp3d-origin="0.5 : 0.33333333 : 1"
       inkscape:vp_z="1 : 0.5 : 1"
       inkscape:vp_y="0 : 1000 : 0"
       inkscape:vp_x="0 : 0.5 : 1"
       sodipodi:type="inkscape:persp3d" />
    <inkscape:perspective
       id="perspective3157"
       inkscape:persp3d-origin="0.5 : 0.33333333 : 1"
       inkscape:vp_z="1 : 0.5 : 1"
       inkscape:vp_y="0 : 1000 : 0"
       inkscape:vp_x="0 : 0.5 : 1"
       sodipodi:type="inkscape:persp3d" />
    <inkscape:perspective
       id="perspective3198"
       inkscape:persp3d-origin="0.5 : 0.33333333 : 1"
       inkscape:vp_z="1 : 0.5 : 1"
       inkscape:vp_y="0 : 1000 : 0"
       inkscape:vp_x="0 : 0.5 : 1"
       sodipodi:type="inkscape:persp3d" />
    <inkscape:perspective
       id="perspective3237"
       inkscape:persp3d-origin="0.5 : 0.33333333 : 1"
       inkscape:vp_z="1 : 0.5 : 1"
       inkscape:vp_y="0 : 1000 : 0"
       inkscape:vp_x="0 : 0.5 : 1"
       sodipodi:type="inkscape:persp3d" />
    <inkscape:perspective
       id="perspective3295"
       inkscape:persp3d-origin="0.5 : 0.33333333 : 1"
       inkscape:vp_z="1 : 0.5 : 1"
       inkscape:vp_y="0 : 1000 : 0"
       inkscape:vp_x="0 : 0.5 : 1"
       sodipodi:type="inkscape:persp3d" />
    <inkscape:perspective
       id="perspective3332"
       inkscape:persp3d-origin="0.5 : 0.33333333 : 1"
       inkscape:vp_z="1 : 0.5 : 1"
       inkscape:vp_y="0 : 1000 : 0"
       inkscape:vp_x="0 : 0.5 : 1"
       sodipodi:type="inkscape:persp3d" />
    <inkscape:perspective
       id="perspective3370"
       inkscape:persp3d-origin="0.5 : 0.33333333 : 1"
       inkscape:vp_z="1 : 0.5 : 1"
       inkscape:vp_y="0 : 1000 : 0"
       inkscape:vp_x="0 : 0.5 : 1"
       sodipodi:type="inkscape:persp3d" />
  </defs>
  <sodipodi:namedview
     id="base"
     pagecolor="#ffffff"
     bordercolor="#666666"
     borderopacity="1.0"
     inkscape:pageopacity="0.0"
     inkscape:pageshadow="2"
     inkscape:zoom="1.4"
     inkscape:cx="136.83874"
     inkscape:cy="82.592006"
     inkscape:document-units="px"
     inkscape:current-layer="layer1"
     showgrid="false"
     inkscape:window-width="1280"
     inkscape:window-height="950"
     inkscape:window-x="0"
     inkscape:window-y="25"
     inkscape:window-maximized="1" />
  <metadata
     id="metadata7">
    <rdf:RDF>
      <cc:Work
         rdf:about="">
        <dc:format>image/svg+xml</dc:format>
        <dc:type
           rdf:resource="http://purl.org/dc/dcmitype/StillImage" />
        <dc:title></dc:title>
      </cc:Work>
    </rdf:RDF>
  </metadata>
  <g
     inkscape:label="Calque 1"
     inkscape:groupmode="layer"
     id="layer1"
     transform="translate(0,-752.36218)">
    <path
       style="fill:#000000"
       d="m 119.35714,1024.1243 c 0,-1.8938 5.9625,-8.1993 13.25,-14.0121 7.2875,-5.8129 13.25,-12.09378 13.25,-13.95766 0,-1.86387 -4.25892,-7.84271 -9.46428,-13.2863 -5.20536,-5.44358 -9.46429,-11.36535 -9.46429,-13.1595 0,-1.79416 -1.53753,-5.62162 -3.41676,-8.5055 -4.23776,-6.5034 -10.66265,-25.71047 -13.62251,-40.72428 -1.39568,-7.07957 -4.29641,-11.32369 -7.7394,-11.32369 -3.028876,0 -5.507043,1.35885 -5.507043,3.01966 0,1.66079 -6.814286,3.01964 -15.142858,3.01964 -8.32857,0 -15.142856,-0.98939 -15.142856,-2.19867 0,-2.99066 30.413179,-24.97817 34.549867,-24.97817 1.819,0 3.30728,-4.07651 3.30728,-9.05894 0,-9.86839 1.01688,-10.45342 10.86356,-6.25001 3.61907,1.54494 8.86118,1.68445 11.64917,0.31006 4.0531,-1.99804 3.20771,-5.15533 -4.21778,-15.75254 -8.25551,-11.78173 -14.02258,-25.61196 -19.59928,-47.00149 -1.85251,-7.10545 4.17923,-12.67948 8.35257,-7.71874 1.32882,1.57953 5.39729,3.74924 9.04104,4.82157 5.79987,1.70685 6.625,-0.10686 6.625,-14.56362 0,-9.08228 0.71929,-16.51327 1.5984,-16.51327 5.1513,0 66.21839,26.73044 74.0772,32.42525 5.18408,3.75659 10.46004,6.83018 11.72432,6.83018 9.17642,0 30.68306,24.00152 36.8417,41.11559 5.82132,16.1767 5.73025,50.80056 -0.16809,63.81094 -4.33195,9.55561 -5.49591,10.10839 -17.50178,8.31185 -12.23084,-1.83021 -26.76113,-6.95021 -30.85766,-10.87321 -3.62069,-3.46734 -19.58906,-9.23581 -21.45238,-7.74953 -1.03142,0.82273 0.0152,4.31462 2.32745,7.75976 2.36739,3.52837 4.23334,21.43123 4.27271,40.99457 0.0885,44.12795 1.46432,45.02265 55.54866,36.12738 15.0847,-2.48098 16.17067,2.08905 1.89286,7.96547 -5.7259,2.3567 -13.71319,6.6628 -17.74956,9.5692 -11.31958,8.1508 -28.44907,5.8565 -43.01415,-5.7613 -8.37548,-6.6806 -18.86755,-4.6526 -33.71266,6.5162 -7.72611,5.8129 -15.25681,10.5688 -16.73486,10.5688 -1.47806,0 -5.38207,0.8248 -8.67557,1.8329 -3.303,1.011 -5.9882,0.289 -5.9882,-1.6105 l 1.8e-4,0 z m 50.5698,-71.18412 c -0.75646,-38.25973 -4.54195,-54.3617 -14.54176,-61.85503 -7.33111,-5.49352 -9.80519,-5.85685 -18.46111,-2.71103 -9.95821,3.61911 -11.345,6.44758 -10.18891,20.78115 1.14358,14.17819 3.57333,22.64752 10.82889,37.74561 3.99055,8.30404 9.39148,19.58819 12.00199,25.07592 3.60854,7.58574 6.68244,9.75744 12.82233,9.05894 7.60747,-0.86544 8.04476,-2.49517 7.53857,-28.09556 z M 240.5,902.94332 c 0,-23.18861 -15.5346,-60.17879 -28.11052,-66.9354 -3.95952,-2.12731 -17.06539,8.50435 -17.23386,13.98033 -0.0461,1.5047 -6.91063,8.07328 -15.25404,14.59687 -8.34342,6.52361 -14.182,13.13597 -12.97466,14.69417 4.09753,5.28837 45.12151,28.34849 56.53736,31.78045 16.97947,5.1045 17.03572,5.07772 17.03572,-8.11642 z m -57.25835,-64.87165 c 4.5588,-6.22803 2.40723,-12.41813 1.80195,-13.46655 -4.28887,-7.42894 -28.45077,18.08579 -27.82932,24.50031 0.11576,1.19485 -1.07173,4.6717 -2.38166,7.71394 -3.5412,8.2244 18.09705,-4.6599 28.40903,-18.7477 z m -39.58193,2.6857 c 2.11606,-4.39851 -8.56635,-16.15225 -14.68001,-16.15225 -3.41244,0 -2.30387,9.07933 1.86776,15.29676 4.80157,7.15629 9.62605,7.47843 12.81225,0.85549 z m 22.70921,-21.0048 c 8.96583,-2.74428 7.2269,-8.82612 -3.65419,-12.78065 -12.82744,-4.66189 -13.07188,-4.59567 -13.07188,3.5415 0,10.49663 4.49887,12.98171 16.72607,9.23915 z"
       id="path3376"
       sodipodi:nodetypes="csssssssssssssssssssssssssssssssssssscccssssssccsssssccsssccssccssc" />
  </g>
</svg>
