<?xml version="1.0" encoding="UTF-8" standalone="no"?>
<!-- Created with Inkscape (http://www.inkscape.org/) -->

<svg
   xmlns:dc="http://purl.org/dc/elements/1.1/"
   xmlns:cc="http://creativecommons.org/ns#"
   xmlns:rdf="http://www.w3.org/1999/02/22-rdf-syntax-ns#"
   xmlns:svg="http://www.w3.org/2000/svg"
   xmlns="http://www.w3.org/2000/svg"
   xmlns:sodipodi="http://sodipodi.sourceforge.net/DTD/sodipodi-0.dtd"
   xmlns:inkscape="http://www.inkscape.org/namespaces/inkscape"
   width="300"
   height="300"
   id="svg2"
   version="1.1"
   inkscape:version="0.47 r22583"
   sodipodi:docname="分-bronze.svg">
  <defs
     id="defs4">
    <inkscape:perspective
       sodipodi:type="inkscape:persp3d"
       inkscape:vp_x="0 : 526.18109 : 1"
       inkscape:vp_y="0 : 1000 : 0"
       inkscape:vp_z="744.09448 : 526.18109 : 1"
       inkscape:persp3d-origin="372.04724 : 350.78739 : 1"
       id="perspective10" />
    <inkscape:perspective
       id="perspective2824"
       inkscape:persp3d-origin="0.5 : 0.33333333 : 1"
       inkscape:vp_z="1 : 0.5 : 1"
       inkscape:vp_y="0 : 1000 : 0"
       inkscape:vp_x="0 : 0.5 : 1"
       sodipodi:type="inkscape:persp3d" />
    <inkscape:perspective
       id="perspective2861"
       inkscape:persp3d-origin="0.5 : 0.33333333 : 1"
       inkscape:vp_z="1 : 0.5 : 1"
       inkscape:vp_y="0 : 1000 : 0"
       inkscape:vp_x="0 : 0.5 : 1"
       sodipodi:type="inkscape:persp3d" />
    <inkscape:perspective
       id="perspective2898"
       inkscape:persp3d-origin="0.5 : 0.33333333 : 1"
       inkscape:vp_z="1 : 0.5 : 1"
       inkscape:vp_y="0 : 1000 : 0"
       inkscape:vp_x="0 : 0.5 : 1"
       sodipodi:type="inkscape:persp3d" />
    <inkscape:perspective
       id="perspective2935"
       inkscape:persp3d-origin="0.5 : 0.33333333 : 1"
       inkscape:vp_z="1 : 0.5 : 1"
       inkscape:vp_y="0 : 1000 : 0"
       inkscape:vp_x="0 : 0.5 : 1"
       sodipodi:type="inkscape:persp3d" />
  </defs>
  <sodipodi:namedview
     id="base"
     pagecolor="#ffffff"
     bordercolor="#666666"
     borderopacity="1.0"
     inkscape:pageopacity="0.0"
     inkscape:pageshadow="2"
     inkscape:zoom="1.979899"
     inkscape:cx="152.04026"
     inkscape:cy="166.85725"
     inkscape:document-units="px"
     inkscape:current-layer="layer1"
     showgrid="false"
     inkscape:window-width="1280"
     inkscape:window-height="950"
     inkscape:window-x="0"
     inkscape:window-y="25"
     inkscape:window-maximized="1" />
  <metadata
     id="metadata7">
    <rdf:RDF>
      <cc:Work
         rdf:about="">
        <dc:format>image/svg+xml</dc:format>
        <dc:type
           rdf:resource="http://purl.org/dc/dcmitype/StillImage" />
        <dc:title></dc:title>
      </cc:Work>
    </rdf:RDF>
  </metadata>
  <g
     inkscape:label="Calque 1"
     inkscape:groupmode="layer"
     id="layer1"
     transform="translate(0,-752.36218)">
    <path
       style="fill:#000000"
       d="m 163.06807,1018.3171 c -12.15305,-14.6487 -14.62981,-47.0355 -8.0979,-105.89033 1.96912,-17.7425 0.69967,-19.92543 -12.22108,-21.01542 -10.2049,-0.86087 -19.97884,3.1663 -33.44567,13.78071 -24.328238,19.17524 -31.816662,24.79259 -49.235547,36.93336 l -9.958615,-1.71299 c 4.504332,-12.32279 15.401057,-26.02369 49.576055,-62.33386 20.479627,-21.75918 20.930647,-23.25984 14.281137,-47.51784 -8.44367,-30.80329 -8.92358,-54.7477 -1.09731,-54.7477 13.93916,0 27.90635,19.50979 41.1054,57.41737 4.54994,13.0674 18.90664,34.29708 31.90379,47.17704 l 23.63121,23.41815 -11.12046,34.34081 c -6.11624,18.88746 -11.12046,47.00086 -11.12046,62.4742 0,15.4734 -2.67972,29.1137 -5.95494,30.3121 -3.27523,1.1984 -11.48572,-4.4878 -18.24561,-12.6356 z m 62.84041,-108.65025 c -22.32859,-25.33204 -26.59735,-37.24959 -28.8539,-80.55473 -2.45938,-47.19709 1.99158,-58.34161 19.80532,-49.58974 7.0603,3.4687 10.54351,11.8091 10.54351,25.24582 0,20.95617 9.8628,59.12964 20.82741,80.61153 4.53942,8.89363 3.90016,16.16684 -2.19373,24.95879 -4.32277,17.51504 -11.45723,14.13305 -20.12861,-0.67167 z M 56.887398,858.20488 c -2.390096,-11.55806 -3.380649,-31.68886 -2.201228,-44.7351 1.757787,-19.44386 4.397685,-23.97447 14.64256,-25.12952 21.498037,-1.29944 14.713115,65.93624 12.171164,76.31067 -8.863029,19.32 -19.881073,16.43437 -24.612496,-6.44605 z"
       id="path2941"
       sodipodi:nodetypes="csssccsssscccssccsssscccsccc" />
  </g>
</svg>
