<?xml version="1.0" encoding="utf-8"?>
<!-- Generator: Adobe Illustrator 15.1.0, SVG Export Plug-In . SVG Version: 6.00 Build 0)  -->
<!DOCTYPE svg PUBLIC "-//W3C//DTD SVG 1.1//EN" "http://www.w3.org/Graphics/SVG/1.1/DTD/svg11.dtd">
<svg version="1.1" id="Layer_1" xmlns="http://www.w3.org/2000/svg" xmlns:xlink="http://www.w3.org/1999/xlink" x="0px" y="0px"
	 width="109px" height="109px" viewBox="0 0 109 109" enable-background="new 0 0 109 109" xml:space="preserve">
<g id="kvg:StrokePaths_02ecc" xmlns:kvg="http://kanjivg.tagaini.net">
	<g id="kvg:02ecc" xmlns:kvg="http://kanjivg.tagaini.net" kvg:element="⻌" kvg:radical="tradit" kvg:original="辶">
		
			<path id="kvg:02ecc-s1" xmlns:kvg="http://kanjivg.tagaini.net" kvg:type="㇔" fill="none" stroke="#000000" stroke-width="3" stroke-linecap="round" stroke-linejoin="round" d="
			M21.46,16c3.63,1.74,9.38,7.17,10.29,9.88"/>
		
			<path id="kvg:02ecc-s2" xmlns:kvg="http://kanjivg.tagaini.net" kvg:type="㇋" fill="none" stroke="#000000" stroke-width="3" stroke-linecap="round" stroke-linejoin="round" d="
			M11.762,48.785c2.196,1.142,3.69,0.726,4.637,0.282c4.032-1.88,9.518-4.352,10.982-4.917c1.464-0.578,2.762,1.612,1.952,3.493
			c-7.692,17.853-8.415,10.464-0.488,22.809c0.957,1.491,0.732,2.821-0.732,4.259s-6.345,4.902-10.855,8.086"/>
		
			<path id="kvg:02ecc-s3" xmlns:kvg="http://kanjivg.tagaini.net" kvg:type="㇏a" fill="none" stroke="#000000" stroke-width="3" stroke-linecap="round" stroke-linejoin="round" d="
			M16,83.75c3-0.5,9-1.75,13.5-0.75s30.07,7.71,34.5,9c12,3.5,21.25,4.5,30.25,2.75"/>
	</g>
</g>
</svg>
