<?xml version="1.0" encoding="UTF-8" standalone="no"?>
<!-- Created with Inkscape (http://www.inkscape.org/) -->
<svg
   xmlns:svg="http://www.w3.org/2000/svg"
   xmlns="http://www.w3.org/2000/svg"
   version="1.0"
   width="300"
   height="300"
   id="svg2">
  <defs
     id="defs5" />
  <path
     d="M 143.8799,256.16416 C 144.66044,252.95716 146.65189,245.08544 148.30535,238.67145 C 151.62145,225.80783 150.37924,192.28206 145.15044,168.26909 C 142.00629,153.82972 153.60132,120.62768 159.81889,112.83014 C 166.3773,104.60513 172.12229,83.180726 166.38857,83.180726 C 164.96324,83.180726 163.79706,84.09547 163.79706,85.213487 C 163.79706,86.331507 160.26769,89.331099 155.95402,91.879245 C 144.18603,98.830771 135.75819,108.79934 128.25254,124.64493 C 122.52837,136.72952 121.18691,144.21328 119.4361,173.82987 C 116.56782,222.34988 110.03401,241.26296 96.14033,241.26296 C 91.01023,241.26296 91.02852,241.05725 96.88916,232.84055 C 102.32992,225.21253 102.95149,221.27541 103.47918,191.09811 C 103.79964,172.77209 104.83425,153.53011 105.77831,148.33816 C 108.81138,127.45423 125.84953,103.2314 140.47345,87.822207 L 158.61403,69.318345 L 158.61403,52.925928 C 158.61403,43.910099 159.28042,36.533511 160.0949,36.533511 C 163.2417,36.533511 167.83433,43.443446 171.29067,53.378339 C 173.27415,59.079665 178.06779,68.409108 181.9432,74.110434 C 190.47974,87.051914 192.9724,102.57201 198.12029,116.99631 C 203.79458,132.34127 204.44236,138.3876 204.88216,180.1111 C 205.16557,206.99762 206.52789,228.42138 208.1465,231.44577 C 209.86975,234.66571 210.00446,237.55635 208.50131,239.05951 C 201.21385,246.34697 192.92336,214.16913 190.70747,169.99638 C 190.06396,157.1684 188.46824,142.59115 187.16141,137.60249 L 181.67424,113.62285 L 175.53553,119.38987 C 163.61624,132.00881 159.15784,149.48624 159.72536,166.44536 C 163.84901,201.15121 164.13601,215.13829 161.06112,231.54479 C 161.48349,241.88277 155.31731,247.49978 151.31104,255.51628 C 147.5981,263.66529 141.93404,264.1591 143.8799,256.16416 z "
     style="fill:black;fill-opacity:1"
     id="path1875" />
</svg>
