<?xml version="1.0" encoding="UTF-8" standalone="no"?>
<!-- Created with Inkscape (http://www.inkscape.org/) -->
<svg
   xmlns:dc="http://purl.org/dc/elements/1.1/"
   xmlns:cc="http://web.resource.org/cc/"
   xmlns:rdf="http://www.w3.org/1999/02/22-rdf-syntax-ns#"
   xmlns:svg="http://www.w3.org/2000/svg"
   xmlns="http://www.w3.org/2000/svg"
   xmlns:sodipodi="http://sodipodi.sourceforge.net/DTD/sodipodi-0.dtd"
   xmlns:inkscape="http://www.inkscape.org/namespaces/inkscape"
   id="svg2178"
   sodipodi:version="0.32"
   inkscape:version="0.45.1"
   width="300"
   height="300"
   version="1.0"
   sodipodi:docbase="C:\Documents and Settings\L'équipage\Mes documents\Bertrand\Gifs"
   sodipodi:docname="中-oracle.svg"
   inkscape:output_extension="org.inkscape.output.svg.inkscape">
  <metadata
     id="metadata2183">
    <rdf:RDF>
      <cc:Work
         rdf:about="">
        <dc:format>image/svg+xml</dc:format>
        <dc:type
           rdf:resource="http://purl.org/dc/dcmitype/StillImage" />
      </cc:Work>
    </rdf:RDF>
  </metadata>
  <defs
     id="defs2181" />
  <sodipodi:namedview
     inkscape:window-height="579"
     inkscape:window-width="752"
     inkscape:pageshadow="2"
     inkscape:pageopacity="0.0"
     guidetolerance="10.0"
     gridtolerance="10.0"
     objecttolerance="10.0"
     borderopacity="1.0"
     bordercolor="#666666"
     pagecolor="#ffffff"
     id="base"
     width="300px"
     height="300px"
     inkscape:showpageshadow="false"
     borderlayer="false"
     inkscape:zoom="1"
     inkscape:cx="29.5"
     inkscape:cy="129.03299"
     inkscape:window-x="44"
     inkscape:window-y="44"
     inkscape:current-layer="svg2178" />
  <path
     style="fill:#000000"
     d="M 175.20883,290.67914 C 172.96538,287.04919 170.33927,272.92806 161.20574,215.38167 C 155.51335,179.51642 155.30044,178.99756 146.2759,178.99756 C 133.85486,178.99756 131.16769,174.52198 126.66635,146.33726 C 124.54073,133.02788 122.04528,120.08191 121.1209,117.56843 C 120.19652,115.05495 120.84822,110.78427 122.56911,108.07803 C 125.25024,103.86174 126.93965,103.8221 134.37444,107.80109 C 139.14649,110.35501 144.00875,111.48671 145.17947,110.316 C 146.35019,109.14527 145.5564,96.410137 143.41549,82.015693 C 139.62818,56.551595 139.0217,55.362363 120.9846,38.031359 C 95.354406,13.404508 95.430471,6.4154695 121.16456,21.496649 C 128.99444,26.085268 136.36277,28.877537 137.53861,27.70169 C 138.71446,26.525844 139.67652,20.486938 139.67652,14.281893 C 139.67652,8.076853 141.14057,3 142.92996,3 C 146.25877,3 156.59936,33.676838 156.59936,43.552209 C 156.59936,46.565068 158.24746,50.678232 160.26181,52.692578 C 162.88869,55.319467 162.82648,58.14259 160.04177,62.677055 C 157.35213,67.056713 157.03389,75.758239 159.00595,90.998778 C 161.83164,112.83628 161.92804,112.99282 172.08161,112.23203 C 185.94033,111.19361 192.55433,123.0283 195.36995,153.90277 C 197.09313,172.79816 196.5078,178.75496 192.61004,181.98981 C 189.24872,184.77946 186.96009,184.95788 185.46976,182.54647 C 184.26342,180.59457 180.15355,178.99756 176.33673,178.99756 C 170.21745,178.99756 169.63409,180.49801 171.40219,191.68969 C 174.08694,208.68365 183.51313,284.50941 183.6039,289.84217 C 183.69008,294.90565 178.16159,295.45683 175.20883,290.67914 z M 172.10673,158.69015 C 175.4504,158.69015 176.90677,154.58252 176.90677,145.15187 C 176.90677,134.14944 175.71279,131.6136 170.53238,131.6136 C 167.00443,131.6136 163.36753,134.63631 162.38782,138.38274 C 160.11199,147.08551 154.28466,147.08551 151.52251,138.38274 C 147.92695,127.05413 143.06108,130.81146 143.06108,144.91647 C 143.06108,156.02531 144.31707,158.4589 150.67636,159.6718 C 154.86477,160.47065 160.32003,160.57658 162.79917,159.9072 C 165.27831,159.23782 169.46671,158.69015 172.10673,158.69015 z "
     id="path2187" />
</svg>
