<?xml version="1.0" encoding="UTF-8" standalone="no"?>
<!-- Created with Inkscape (http://www.inkscape.org/) -->
<svg
   xmlns:dc="http://purl.org/dc/elements/1.1/"
   xmlns:cc="http://web.resource.org/cc/"
   xmlns:rdf="http://www.w3.org/1999/02/22-rdf-syntax-ns#"
   xmlns:svg="http://www.w3.org/2000/svg"
   xmlns="http://www.w3.org/2000/svg"
   xmlns:sodipodi="http://sodipodi.sourceforge.net/DTD/sodipodi-0.dtd"
   xmlns:inkscape="http://www.inkscape.org/namespaces/inkscape"
   width="300"
   height="300"
   id="svg2"
   sodipodi:version="0.32"
   inkscape:version="0.45.1"
   version="1.0"
   sodipodi:docbase="C:\Documents and Settings\Martin\桌面"
   sodipodi:docname="drawing.svg"
   inkscape:output_extension="org.inkscape.output.svg.inkscape">
  <defs
     id="defs4" />
  <sodipodi:namedview
     id="base"
     pagecolor="#ffffff"
     bordercolor="#666666"
     borderopacity="1.0"
     gridtolerance="10000"
     guidetolerance="10"
     objecttolerance="10"
     inkscape:pageopacity="0.0"
     inkscape:pageshadow="2"
     inkscape:zoom="1.2311444"
     inkscape:cx="177.79409"
     inkscape:cy="122.12175"
     inkscape:document-units="px"
     inkscape:current-layer="layer1"
     width="300px"
     height="300px"
     inkscape:window-width="1024"
     inkscape:window-height="712"
     inkscape:window-x="0"
     inkscape:window-y="22" />
  <metadata
     id="metadata7">
    <rdf:RDF>
      <cc:Work
         rdf:about="">
        <dc:format>image/svg+xml</dc:format>
        <dc:type
           rdf:resource="http://purl.org/dc/dcmitype/StillImage" />
      </cc:Work>
    </rdf:RDF>
  </metadata>
  <g
     inkscape:label="Layer 1"
     inkscape:groupmode="layer"
     id="layer1">
    <path
       style="fill:#000000"
       d="M 209.92543,281.65914 C 198.9542,258.75086 194.00074,231.75057 189.72788,206.56246 C 188.44069,198.09901 189.32225,184.94641 191.68688,177.33448 C 194.05152,169.72253 197.23332,153.62082 198.75752,141.55289 C 200.09716,130.94634 201.14454,119.80407 200.23815,117.10778 C 199.33177,114.41148 196.4716,120.16116 191.73945,120.67576 C 182.16781,121.71665 181.95008,120.9656 181.95008,86.907372 C 181.95008,51.858957 183.18617,46.827603 190.50695,52.077433 C 194.22659,54.744837 196.7566,59.595492 208.3303,86.249195 C 215.11896,101.88317 216.63437,138.43574 212.08631,176.84692 C 208.82596,204.38272 209.38613,217.78982 214.95085,245.40685 C 221.71817,278.99233 219.95778,291.69149 209.92543,281.65914 z M 87.345227,271.01181 C 86.983446,264.69647 86.954107,256.71097 87.280013,253.26625 C 87.60592,249.82152 85.885364,238.2857 83.456549,227.63109 C 78.941942,207.82659 79.515407,203.98648 95.095475,149.69247 C 101.54511,127.21654 99.734251,76.809115 92.141303,67.459777 C 90.276241,65.163288 87.433555,56.238316 85.824239,47.626499 C 83.414515,34.731564 84.101151,31.968651 89.715536,31.968651 C 105.03706,31.968651 128.14716,124.6309 118.20819,146.21285 C 104.31572,176.37965 101.25027,189.28882 111.05748,176.32567 C 119.58866,165.04919 122.1778,169.72444 122.88235,197.67803 C 123.36284,216.74188 122.1501,221.95055 117.23098,221.95055 C 113.29977,221.95055 110.10179,216.50936 108.64179,207.33656 L 106.31575,192.72257 L 101.81462,207.86156 C 99.339011,216.18802 98.252901,227.9147 99.401051,233.92086 C 102.15875,248.34685 96.901341,282.49423 91.92258,282.49423 C 89.766809,282.49423 87.706997,277.32713 87.345227,271.01181 z M 148.94132,227.16983 C 137.92743,186.99804 137.63747,173.82885 146.89581,134.2666 C 152.70835,109.42876 153.69049,83.145816 149.23186,71.752216 C 146.83594,65.232633 146.47213,62.112533 142.52574,69.155587 C 133.64795,83.520153 124.09801,56.902233 129.19292,31.993861 C 132.72381,14.731764 147.46486,8.0052863 146.02202,24.314581 C 145.16575,33.99344 145.3106,45.184541 146.62651,49.913705 C 147.94241,54.642868 150.42937,52.910094 154.25733,53.91113 C 168.62646,57.668742 172.37656,101.3477 161.80555,141.82851 C 158.27374,155.35329 157.30756,166.98488 159.43681,170.34541 C 162.06826,174.49856 163.04994,173.50098 163.09673,166.62615 C 163.13189,161.45906 164.90183,157.23144 167.02993,157.23144 C 172.01541,157.23144 174.26927,168.71617 172.17585,183.45298 C 170.88796,192.51931 168.84367,194.52628 162.83817,192.62021 C 155.85553,190.404 155.37893,192.11814 157.6489,211.28449 C 159.3971,226.0453 158.67914,232.38912 155.26036,232.38912 C 152.57193,232.38912 149.72836,230.04044 148.94132,227.16983 z "
       id="path2302"
       sodipodi:nodetypes="ccsssssssssccsssssssssscccssccsccsscsssssssssc" />
  </g>
</svg>
