<?xml version="1.0" encoding="UTF-8" standalone="no"?>
<!-- Created with Inkscape (http://www.inkscape.org/) -->
<svg
   xmlns:svg="http://www.w3.org/2000/svg"
   xmlns="http://www.w3.org/2000/svg"
   version="1.0"
   width="300"
   height="300"
   id="svg2">
  <defs
     id="defs5" />
  <path
     d="M 121.01172,260.97413 C 110.67635,240.02814 106.22135,225.21666 106.14246,211.53846 C 106.0966,203.5876 104.59501,196.12444 102.47801,193.32551 C 100.50529,190.71734 98.891243,187.07042 98.891243,185.22123 C 98.891243,178.91117 109.51082,184.91 124.36936,199.61342 C 139.27664,214.36507 142.86472,216.47435 142.86472,210.48607 C 147.51842,199.87527 141.27809,200.91511 133.05999,190.12798 C 128.44323,182.40208 124.08669,175.53123 123.37878,174.85941 C 117.76462,169.53147 114.82711,157.59508 115.3138,142.08786 C 116.06734,118.07754 129.26299,41.735574 133.48615,36.953713 C 134.61346,35.67726 135.53581,32.104416 135.53581,29.014058 C 135.53581,25.9237 136.56778,23.395225 137.82909,23.395225 C 140.896,23.395225 143.11667,40.812314 142.30286,58.483719 C 141.80543,69.284974 142.5443,73.237068 145.30769,74.556126 C 147.32314,75.518168 153.50864,78.526251 159.05325,81.240758 C 168.96907,86.095305 169.2883,86.101339 178.52447,81.608799 C 183.68904,79.096717 188.99161,75.964359 190.30796,74.648008 C 191.62431,73.331655 196.29209,72.25464 200.6808,72.25464 L 208.66026,72.25464 L 200.90515,80.188007 L 193.15004,88.121373 L 200.37675,89.670849 C 204.35144,90.523063 211.05868,91.350394 215.28174,91.509366 C 222.40387,91.77747 227.50359,96.735139 224.12876,100.10996 C 223.32558,100.91314 219.03147,101.57029 214.58628,101.57029 C 206.90902,101.57029 206.57755,101.93745 207.9699,108.8992 C 208.90366,113.56799 208.43813,116.22811 206.68734,116.22811 C 205.17575,116.22811 203.939,115.12878 203.939,113.78514 C 203.939,112.44151 202.78693,111.34217 201.37885,111.34217 C 199.97076,111.34217 196.39792,108.61953 193.43919,105.29185 C 189.43395,100.78715 183.13466,98.247299 168.78084,95.349689 C 158.17747,93.209182 147.09635,89.881622 144.15612,87.955107 C 138.57568,84.298666 135.53581,85.395524 135.53581,91.065515 C 135.53581,99.931449 170.51408,124.98055 178.57499,121.8873 C 180.43249,121.17451 181.95226,117.99509 181.95226,114.82193 C 181.95226,107.05924 187.90552,109.45212 191.7632,118.76539 C 194.96383,126.49238 196.77246,127.33771 215.0492,129.64906 C 239.23359,132.7075 238.71356,140.54927 214.32162,140.62041 C 207.26754,140.64099 201.49603,141.31262 201.49603,142.11293 C 201.49603,142.91324 203.96953,147.02028 206.99271,151.23968 C 213.82491,160.77529 218.96346,170.42115 217.82016,171.56446 C 216.38886,172.99575 199.23806,159.17267 199.14209,156.51043 C 199.09312,155.15211 195.48021,149.92312 191.1134,144.89045 C 185.64883,138.59264 181.15141,135.74509 176.68644,135.75601 C 168.59044,135.77582 151.59589,126.93533 142.66906,118.06034 C 138.95248,114.36535 134.88906,111.34217 133.63923,111.34217 C 131.67757,111.34217 128.20689,138.505 128.20689,153.85762 C 128.20689,156.68117 133.70586,168.33317 140.42682,179.75097 C 157.11434,208.10032 161.40309,221.50195 157.72089,233.79203 C 156.1603,239.00084 153.7857,243.26259 152.44402,243.26259 C 151.10234,243.26259 144.27561,237.76705 137.27352,231.05027 C 130.27142,224.33349 123.59559,218.83681 122.43833,218.83541 C 119.73901,218.83217 122.75882,235.08926 126.97035,243.23347 C 128.74713,246.66939 130.74241,254.67757 131.4043,261.02942 C 132.99347,276.27988 128.55236,276.25626 121.01172,260.97413 z "
     style="fill:black;fill-opacity:1"
     id="path1875" />
</svg>
