<?xml version="1.0" encoding="utf-8"?>
<!-- Generator: Adobe Illustrator 15.1.0, SVG Export Plug-In . SVG Version: 6.00 Build 0)  -->
<!DOCTYPE svg PUBLIC "-//W3C//DTD SVG 1.1//EN" "http://www.w3.org/Graphics/SVG/1.1/DTD/svg11.dtd">
<svg version="1.1" id="Layer_1" xmlns="http://www.w3.org/2000/svg" xmlns:xlink="http://www.w3.org/1999/xlink" x="0px" y="0px"
	 width="109px" height="109px" viewBox="0 0 109 109" enable-background="new 0 0 109 109" xml:space="preserve">
<g id="kvg:StrokePaths_04e4b" xmlns:kvg="http://kanjivg.tagaini.net">
	<g id="kvg:04e4b" xmlns:kvg="http://kanjivg.tagaini.net" kvg:element="之">
		<g id="kvg:04e4b-g1" xmlns:kvg="http://kanjivg.tagaini.net" kvg:element="亠" kvg:radical="nelson" kvg:variant="true">
			<g id="kvg:04e4b-g2" xmlns:kvg="http://kanjivg.tagaini.net" kvg:element="丶" kvg:radical="tradit" kvg:variant="true">
				
					<path id="kvg:04e4b-s1" xmlns:kvg="http://kanjivg.tagaini.net" kvg:type="㇑a" fill="none" stroke="#000000" stroke-width="3" stroke-linecap="round" stroke-linejoin="round" d="
					M50.65,16.5c1.3,1.3,1.42,2.5,1.42,4.52c0,3.9-0.06,12.06-0.06,15.6"/>
			</g>
			
				<path id="kvg:04e4b-s2" xmlns:kvg="http://kanjivg.tagaini.net" kvg:type="㇇" fill="none" stroke="#000000" stroke-width="3" stroke-linecap="round" stroke-linejoin="round" d="
				M23.58,41.5c2.54,1.13,5.41,0.73,8.07,0.26c10.23-1.81,30.92-5.79,38.18-7.01c5.92-1,7.65,2.76,2.5,6.5
				C55.62,53.38,41.5,62,24,71.25"/>
		</g>
		
			<path id="kvg:04e4b-s3" xmlns:kvg="http://kanjivg.tagaini.net" kvg:type="㇏" fill="none" stroke="#000000" stroke-width="3" stroke-linecap="round" stroke-linejoin="round" d="
			M14.75,72.5c2.75-0.25,5.37,0.07,7.17,0.37c18.58,3.13,33.83,10,50.391,14.989C78.76,89.811,81.5,90.38,87,91"/>
	</g>
</g>
</svg>
