<?xml version="1.0" encoding="utf-8"?>
<!-- Generator: Adobe Illustrator 15.1.0, SVG Export Plug-In . SVG Version: 6.00 Build 0)  -->
<!DOCTYPE svg PUBLIC "-//W3C//DTD SVG 1.1//EN" "http://www.w3.org/Graphics/SVG/1.1/DTD/svg11.dtd">
<svg version="1.1" id="Layer_1" xmlns="http://www.w3.org/2000/svg" xmlns:xlink="http://www.w3.org/1999/xlink" x="0px" y="0px"
	 width="109px" height="109px" viewBox="0 0 109 109" enable-background="new 0 0 109 109" xml:space="preserve">
<g id="kvg:StrokePaths_04e0e" xmlns:kvg="http://kanjivg.tagaini.net">
	<g id="kvg:04e0e" xmlns:kvg="http://kanjivg.tagaini.net" kvg:element="与">
		
			<path id="kvg:04e0e-s1" xmlns:kvg="http://kanjivg.tagaini.net" kvg:type="㇐" fill="none" stroke="#000000" stroke-width="3" stroke-linecap="round" stroke-linejoin="round" d="
			M44.5,28.5c1.21-0.11,3.06-0.34,5.23-0.64C57.391,26.82,69.05,25,71,25c2.5,0,4-0.5,5.25-0.25"/>
		
			<path id="kvg:04e0e-s2" xmlns:kvg="http://kanjivg.tagaini.net" kvg:type="㇉" fill="none" stroke="#000000" stroke-width="3" stroke-linecap="round" stroke-linejoin="round" d="
			M45.75,10.5c0.94,0.94,1.41,2.47,1,4.82c-1,5.68-4.03,19.24-6,26.4c-1.25,4.54-0.75,5.04,3,4.17c1.98-0.46,20.01-3.52,25-4.06
			c3-0.32,4.891,1.94,4.5,5.1c-1.75,14.2-5.75,34.08-12,44.29c-4.6,7.521-8.32,3.94-14-0.68"/>
		<g id="kvg:04e0e-g1" xmlns:kvg="http://kanjivg.tagaini.net" kvg:element="一" kvg:radical="general">
			
				<path id="kvg:04e0e-s3" xmlns:kvg="http://kanjivg.tagaini.net" kvg:type="㇐" fill="none" stroke="#000000" stroke-width="3" stroke-linecap="round" stroke-linejoin="round" d="
				M11.25,64.95c5,1.05,8.81,0.659,12.76,0.25c22.74-2.33,43.11-4.58,62.12-4.89c3.95-0.07,7.771-0.101,11.62,0.729"/>
		</g>
	</g>
</g>
</svg>
