<?xml version="1.0" encoding="utf-8"?>
<!-- Generator: Adobe Illustrator 15.1.0, SVG Export Plug-In . SVG Version: 6.00 Build 0)  -->
<!DOCTYPE svg PUBLIC "-//W3C//DTD SVG 1.1//EN" "http://www.w3.org/Graphics/SVG/1.1/DTD/svg11.dtd">
<svg version="1.1" id="Layer_1" xmlns="http://www.w3.org/2000/svg" xmlns:xlink="http://www.w3.org/1999/xlink" x="0px" y="0px"
	 width="109px" height="109px" viewBox="0 0 109 109" enable-background="new 0 0 109 109" xml:space="preserve">
<g id="kvg:StrokePaths_04e0d" xmlns:kvg="http://kanjivg.tagaini.net">
	<g id="kvg:04e0d" xmlns:kvg="http://kanjivg.tagaini.net" kvg:element="不">
		<g id="kvg:04e0d-g1" xmlns:kvg="http://kanjivg.tagaini.net" kvg:element="一" kvg:radical="general">
			
				<path id="kvg:04e0d-s1" xmlns:kvg="http://kanjivg.tagaini.net" kvg:type="㇐" fill="none" stroke="#000000" stroke-width="3" stroke-linecap="round" stroke-linejoin="round" d="
				M18.5,23.7c2.46,0.54,6.98,0.73,9.44,0.54c19.44-1.49,39.69-4.12,56.57-4.73c4.1-0.15,6.57,0.26,8.62,0.53"/>
		</g>
		<g id="kvg:04e0d-g2" xmlns:kvg="http://kanjivg.tagaini.net" kvg:element="丿">
			
				<path id="kvg:04e0d-s2" xmlns:kvg="http://kanjivg.tagaini.net" kvg:type="㇒" fill="none" stroke="#000000" stroke-width="3" stroke-linecap="round" stroke-linejoin="round" d="
				M60.25,24.88c0.13,1.08-0.07,2.6-0.76,4.09c-4.33,9.271-22.7,30.16-46.18,41.5"/>
		</g>
		<g id="kvg:04e0d-g3" xmlns:kvg="http://kanjivg.tagaini.net" kvg:element="丨">
			
				<path id="kvg:04e0d-s3" xmlns:kvg="http://kanjivg.tagaini.net" kvg:type="㇑" fill="none" stroke="#000000" stroke-width="3" stroke-linecap="round" stroke-linejoin="round" d="
				M52.5,35.5c0.75,0.75,1.46,1.5,1.46,3.5c0,0.86,0.02,36.38,0.03,51.75c0,2.96,0,5.18,0,6.25"/>
		</g>
		
			<path id="kvg:04e0d-s4" xmlns:kvg="http://kanjivg.tagaini.net" kvg:type="㇔" fill="none" stroke="#000000" stroke-width="3" stroke-linecap="round" stroke-linejoin="round" d="
			M72.52,49.08c8.4,3.64,20.86,14.29,23.791,20.63"/>
	</g>
</g>
</svg>
