<?xml version="1.0" encoding="utf-8"?>
<!-- Generator: Adobe Illustrator 15.1.0, SVG Export Plug-In . SVG Version: 6.00 Build 0)  -->
<!DOCTYPE svg PUBLIC "-//W3C//DTD SVG 1.1//EN" "http://www.w3.org/Graphics/SVG/1.1/DTD/svg11.dtd">
<svg version="1.1" id="Layer_1" xmlns="http://www.w3.org/2000/svg" xmlns:xlink="http://www.w3.org/1999/xlink" x="0px" y="0px"
	 width="109px" height="109px" viewBox="0 0 109 109" enable-background="new 0 0 109 109" xml:space="preserve">
<g id="kvg:StrokePaths_04e09" xmlns:kvg="http://kanjivg.tagaini.net">
	<g id="kvg:04e09" xmlns:kvg="http://kanjivg.tagaini.net" kvg:element="三">
		<g id="kvg:04e09-g1" xmlns:kvg="http://kanjivg.tagaini.net" kvg:element="一" kvg:position="top" kvg:radical="general">
			
				<path id="kvg:04e09-s1" xmlns:kvg="http://kanjivg.tagaini.net" kvg:type="㇐" fill="none" stroke="#000000" stroke-width="3" stroke-linecap="round" stroke-linejoin="round" d="
				M27.5,23.65c3.09,0.73,6.29,0.36,9.4,0.06c10.2-1,27-2.94,38.97-3.57c3.06-0.16,6.09-0.2,9.14,0.23"/>
		</g>
		<g id="kvg:04e09-g2" xmlns:kvg="http://kanjivg.tagaini.net" kvg:position="bottom">
			<g id="kvg:04e09-g3" xmlns:kvg="http://kanjivg.tagaini.net" kvg:element="一" kvg:radical="general">
				
					<path id="kvg:04e09-s2" xmlns:kvg="http://kanjivg.tagaini.net" kvg:type="㇐" fill="none" stroke="#000000" stroke-width="3" stroke-linecap="round" stroke-linejoin="round" d="
					M28.75,55.141c3.13,0.76,6.46,0.43,9.64,0.199c10.03-0.72,23.969-2.63,34.73-3.12c2.7-0.12,5.45-0.16,8.13,0.3"/>
			</g>
			<g id="kvg:04e09-g4" xmlns:kvg="http://kanjivg.tagaini.net" kvg:element="一" kvg:radical="general">
				
					<path id="kvg:04e09-s3" xmlns:kvg="http://kanjivg.tagaini.net" kvg:type="㇐" fill="none" stroke="#000000" stroke-width="3" stroke-linecap="round" stroke-linejoin="round" d="
					M13,87.83c3.94,1.01,7.72,0.96,11.75,0.72c18.41-1.069,41.27-3.39,61.12-4.069c3.63-0.131,7.2-0.101,10.75,0.779"/>
			</g>
		</g>
	</g>
</g>
</svg>
