<?xml version="1.0" encoding="UTF-8" standalone="no"?>
<!-- Created with Inkscape (http://www.inkscape.org/) -->

<svg
   xmlns:dc="http://purl.org/dc/elements/1.1/"
   xmlns:cc="http://creativecommons.org/ns#"
   xmlns:rdf="http://www.w3.org/1999/02/22-rdf-syntax-ns#"
   xmlns:svg="http://www.w3.org/2000/svg"
   xmlns="http://www.w3.org/2000/svg"
   xmlns:sodipodi="http://sodipodi.sourceforge.net/DTD/sodipodi-0.dtd"
   xmlns:inkscape="http://www.inkscape.org/namespaces/inkscape"
   width="300"
   height="300"
   id="svg2"
   version="1.1"
   inkscape:version="0.47 r22583"
   sodipodi:docname="兒-bronze.svg">
  <defs
     id="defs4">
    <inkscape:perspective
       sodipodi:type="inkscape:persp3d"
       inkscape:vp_x="0 : 526.18109 : 1"
       inkscape:vp_y="0 : 1000 : 0"
       inkscape:vp_z="744.09448 : 526.18109 : 1"
       inkscape:persp3d-origin="372.04724 : 350.78739 : 1"
       id="perspective10" />
    <inkscape:perspective
       id="perspective2824"
       inkscape:persp3d-origin="0.5 : 0.33333333 : 1"
       inkscape:vp_z="1 : 0.5 : 1"
       inkscape:vp_y="0 : 1000 : 0"
       inkscape:vp_x="0 : 0.5 : 1"
       sodipodi:type="inkscape:persp3d" />
    <inkscape:perspective
       id="perspective2864"
       inkscape:persp3d-origin="0.5 : 0.33333333 : 1"
       inkscape:vp_z="1 : 0.5 : 1"
       inkscape:vp_y="0 : 1000 : 0"
       inkscape:vp_x="0 : 0.5 : 1"
       sodipodi:type="inkscape:persp3d" />
    <inkscape:perspective
       id="perspective2902"
       inkscape:persp3d-origin="0.5 : 0.33333333 : 1"
       inkscape:vp_z="1 : 0.5 : 1"
       inkscape:vp_y="0 : 1000 : 0"
       inkscape:vp_x="0 : 0.5 : 1"
       sodipodi:type="inkscape:persp3d" />
    <inkscape:perspective
       id="perspective2941"
       inkscape:persp3d-origin="0.5 : 0.33333333 : 1"
       inkscape:vp_z="1 : 0.5 : 1"
       inkscape:vp_y="0 : 1000 : 0"
       inkscape:vp_x="0 : 0.5 : 1"
       sodipodi:type="inkscape:persp3d" />
  </defs>
  <sodipodi:namedview
     id="base"
     pagecolor="#ffffff"
     bordercolor="#666666"
     borderopacity="1.0"
     inkscape:pageopacity="0.0"
     inkscape:pageshadow="2"
     inkscape:zoom="1.979899"
     inkscape:cx="223.60115"
     inkscape:cy="137.21751"
     inkscape:document-units="px"
     inkscape:current-layer="layer1"
     showgrid="false"
     inkscape:window-width="1280"
     inkscape:window-height="950"
     inkscape:window-x="0"
     inkscape:window-y="25"
     inkscape:window-maximized="1" />
  <metadata
     id="metadata7">
    <rdf:RDF>
      <cc:Work
         rdf:about="">
        <dc:format>image/svg+xml</dc:format>
        <dc:type
           rdf:resource="http://purl.org/dc/dcmitype/StillImage" />
        <dc:title></dc:title>
      </cc:Work>
    </rdf:RDF>
  </metadata>
  <g
     inkscape:label="Calque 1"
     inkscape:groupmode="layer"
     id="layer1"
     transform="translate(0,-752.36218)">
    <path
       style="fill:#000000"
       d="m 195.28438,1030.9815 c 5.11957,-13.9489 11.21728,-29.1791 8.20761,-44.21679 -8.89017,-6.6401 -18.84563,8.32622 -29.31889,8.26925 -25.54149,7.08564 -49.42652,19.53324 -75.471146,24.75654 -17.186754,2.2438 -28.444593,-19.7338 -19.26043,-33.48618 14.837727,-14.63456 13.749491,-36.7628 17.579174,-55.80158 3.326582,-22.6393 14.265702,-43.29623 17.904132,-65.80122 0.73481,-15.50772 -19.093517,-15.72176 -29.429535,-20.68176 -12.010803,-3.45262 -22.891159,-11.55509 -27.02562,-23.71989 -6.167368,-16.29938 -12.183544,-32.77755 -17.099909,-49.4711 1.471354,-15.60965 21.617034,-1.48351 28.324222,3.55262 13.753997,11.28594 29.370695,20.03941 43.440402,30.79594 10.47176,11.3981 -10.96024,8.3211 -15.622686,2.17455 -6.579925,-7.86323 -24.186117,-7.48014 -18.164807,6.05522 7.141089,13.48627 20.235462,24.11413 34.790263,28.61864 28.3446,3.46394 57.23588,3.11405 85.57726,-0.25401 12.43125,-2.61689 26.66453,-8.71884 30.18255,-22.1982 3.70641,-11.57111 8.79181,-23.95532 6.90468,-36.19843 -11.97358,2.64191 -22.14377,13.06855 -32.89847,19.40518 -9.44876,5.48682 -19.9909,15.16305 -31.64128,11.44348 4.34255,-9.66859 16.35883,-14.53403 24.70769,-20.95036 16.1354,-9.72854 32.30889,-20.38476 50.60899,-25.48345 13.29893,4.16879 9.24943,24.41182 9.2304,35.72375 -0.91514,12.68099 -6.05599,25.65706 -17.44935,32.38202 -20.00802,14.19326 -44.51749,19.32036 -68.59153,20.78447 -6.60708,-1.43028 -3.47525,4.78429 -3.21773,8.74257 2.9304,20.78169 5.9017,41.65795 12.06277,61.76244 2.52332,14.90128 -12.97998,23.02791 -23.66557,29.40485 -19.23091,10.97425 -41.15733,18.96134 -56.146315,35.94363 -8.53818,15.62682 18.079875,9.51082 25.523735,6.46651 31.50037,-9.15941 60.77357,-24.35804 91.71481,-35.00655 6.85924,-0.94351 23.12847,-9.0178 25.23117,-0.28055 -12.53398,17.63958 -11.58578,41.22021 -23.63873,59.24141 -3.19878,7.6752 -22.15743,24.9644 -23.97474,9.8168 l 0.62688,-1.7898 z m -45.6809,-96.51664 c 10.58274,-10.33368 -1.37246,-22.36459 -4.6183,-32.92857 -3.22178,-4.97841 -1.79977,-29.18846 -9.05277,-15.12444 -9.68287,22.8884 -18.59886,46.22054 -25.17788,70.2 4.94322,6.12645 18.9626,-7.70805 25.94885,-11.15984 4.55745,-3.33174 9.10956,-6.7741 12.9001,-10.98715 z"
       id="path2947" />
  </g>
</svg>
