<?xml version="1.0" encoding="UTF-8" standalone="no"?>
<!-- Created with Inkscape (http://www.inkscape.org/) -->

<svg
   xmlns:dc="http://purl.org/dc/elements/1.1/"
   xmlns:cc="http://creativecommons.org/ns#"
   xmlns:rdf="http://www.w3.org/1999/02/22-rdf-syntax-ns#"
   xmlns:svg="http://www.w3.org/2000/svg"
   xmlns="http://www.w3.org/2000/svg"
   xmlns:sodipodi="http://sodipodi.sourceforge.net/DTD/sodipodi-0.dtd"
   xmlns:inkscape="http://www.inkscape.org/namespaces/inkscape"
   width="300"
   height="300"
   id="svg2"
   version="1.1"
   inkscape:version="0.47 r22583"
   sodipodi:docname="元-bronze.svg">
  <defs
     id="defs4">
    <inkscape:perspective
       sodipodi:type="inkscape:persp3d"
       inkscape:vp_x="0 : 526.18109 : 1"
       inkscape:vp_y="0 : 1000 : 0"
       inkscape:vp_z="744.09448 : 526.18109 : 1"
       inkscape:persp3d-origin="372.04724 : 350.78739 : 1"
       id="perspective10" />
    <inkscape:perspective
       id="perspective2824"
       inkscape:persp3d-origin="0.5 : 0.33333333 : 1"
       inkscape:vp_z="1 : 0.5 : 1"
       inkscape:vp_y="0 : 1000 : 0"
       inkscape:vp_x="0 : 0.5 : 1"
       sodipodi:type="inkscape:persp3d" />
    <inkscape:perspective
       id="perspective2861"
       inkscape:persp3d-origin="0.5 : 0.33333333 : 1"
       inkscape:vp_z="1 : 0.5 : 1"
       inkscape:vp_y="0 : 1000 : 0"
       inkscape:vp_x="0 : 0.5 : 1"
       sodipodi:type="inkscape:persp3d" />
    <inkscape:perspective
       id="perspective2900"
       inkscape:persp3d-origin="0.5 : 0.33333333 : 1"
       inkscape:vp_z="1 : 0.5 : 1"
       inkscape:vp_y="0 : 1000 : 0"
       inkscape:vp_x="0 : 0.5 : 1"
       sodipodi:type="inkscape:persp3d" />
    <inkscape:perspective
       id="perspective2939"
       inkscape:persp3d-origin="0.5 : 0.33333333 : 1"
       inkscape:vp_z="1 : 0.5 : 1"
       inkscape:vp_y="0 : 1000 : 0"
       inkscape:vp_x="0 : 0.5 : 1"
       sodipodi:type="inkscape:persp3d" />
  </defs>
  <sodipodi:namedview
     id="base"
     pagecolor="#ffffff"
     bordercolor="#666666"
     borderopacity="1.0"
     inkscape:pageopacity="0.0"
     inkscape:pageshadow="2"
     inkscape:zoom="1.979899"
     inkscape:cx="176.07726"
     inkscape:cy="156.38832"
     inkscape:document-units="px"
     inkscape:current-layer="layer1"
     showgrid="false"
     inkscape:window-width="1280"
     inkscape:window-height="950"
     inkscape:window-x="0"
     inkscape:window-y="25"
     inkscape:window-maximized="1" />
  <metadata
     id="metadata7">
    <rdf:RDF>
      <cc:Work
         rdf:about="">
        <dc:format>image/svg+xml</dc:format>
        <dc:type
           rdf:resource="http://purl.org/dc/dcmitype/StillImage" />
        <dc:title></dc:title>
      </cc:Work>
    </rdf:RDF>
  </metadata>
  <g
     inkscape:label="Calque 1"
     inkscape:groupmode="layer"
     id="layer1"
     transform="translate(0,-752.36218)">
    <path
       style="fill:#000000"
       d="m 140.10043,1021.2762 c -13.36939,-49.08168 -21.77191,-75.16327 -30.15843,-93.6126 -12.70596,-27.95167 -12.544391,-45.56193 0.62775,-68.40576 5.80612,-10.06931 10.55658,-19.92715 10.55658,-21.90636 0,-1.97919 -14.25139,-3.5985 -31.669754,-3.5985 -28.279934,0 -31.669759,-0.85038 -31.669759,-7.94479 0,-11.09689 14.555368,-14.08273 82.184293,-16.85892 72.30439,-2.96809 97.27767,-0.49797 97.27767,9.62177 0,5.90133 -3.99609,7.33427 -20.45339,7.33427 -26.95608,0 -53.44271,4.07482 -53.44271,8.22183 0,1.82438 6.22896,13.44052 13.84221,25.81365 14.01265,22.77363 22.58292,52.28875 15.18292,52.28875 -6.56002,0 -20.93149,-13.97131 -31.94476,-31.05534 -12.00654,-18.62489 -21.52156,-20.32731 -29.28719,-5.24009 -5.47581,10.63849 -3.59278,21.25994 11.65198,65.72414 10.18294,29.70039 14.34202,54.96502 11.47987,69.73485 -3.38613,17.4738 -10.71752,22.5846 -14.17728,9.8831 z M 95.790528,789.8061 c -9.261981,-6.88526 -7.73249,-14.87265 2.903061,-15.16098 5.080351,-0.13774 21.113171,-0.62796 35.628481,-1.08944 37.77252,-1.20092 70.76387,11.81909 47.07292,18.57728 -15.07174,4.29946 -79.0294,2.56097 -85.604462,-2.32686 z"
       id="path2945"
       sodipodi:nodetypes="csssssssssssssssccsssc" />
  </g>
</svg>
