<?xml version="1.0" encoding="UTF-8" standalone="no"?>
<!-- Created with Inkscape (http://www.inkscape.org/) -->

<svg
   xmlns:dc="http://purl.org/dc/elements/1.1/"
   xmlns:cc="http://creativecommons.org/ns#"
   xmlns:rdf="http://www.w3.org/1999/02/22-rdf-syntax-ns#"
   xmlns:svg="http://www.w3.org/2000/svg"
   xmlns="http://www.w3.org/2000/svg"
   xmlns:sodipodi="http://sodipodi.sourceforge.net/DTD/sodipodi-0.dtd"
   xmlns:inkscape="http://www.inkscape.org/namespaces/inkscape"
   width="300"
   height="300"
   id="svg2"
   version="1.1"
   inkscape:version="0.48.2 r9819"
   sodipodi:docname="事-bronze.svg">
  <defs
     id="defs4" />
  <sodipodi:namedview
     id="base"
     pagecolor="#ffffff"
     bordercolor="#666666"
     borderopacity="1.0"
     inkscape:pageopacity="0.0"
     inkscape:pageshadow="2"
     inkscape:zoom="1.979899"
     inkscape:cx="151.02108"
     inkscape:cy="149.30463"
     inkscape:document-units="px"
     inkscape:current-layer="layer1"
     showgrid="false"
     inkscape:window-width="1280"
     inkscape:window-height="999"
     inkscape:window-x="0"
     inkscape:window-y="24"
     inkscape:window-maximized="1" />
  <metadata
     id="metadata7">
    <rdf:RDF>
      <cc:Work
         rdf:about="">
        <dc:format>image/svg+xml</dc:format>
        <dc:type
           rdf:resource="http://purl.org/dc/dcmitype/StillImage" />
        <dc:title></dc:title>
      </cc:Work>
    </rdf:RDF>
  </metadata>
  <g
     inkscape:label="Calque 1"
     inkscape:groupmode="layer"
     id="layer1"
     transform="translate(0,-752.36218)">
    <path
       style="fill:#000000"
       d="m 233.6169,1028.0503 c -1.07458,-2.4627 -7.05766,-9.994 -13.29572,-16.7361 -6.23807,-6.7421 -12.30052,-14.00437 -13.47212,-16.13842 -2.79565,-5.09216 -12.92629,-7.40552 -12.92629,-2.95174 0,4.70252 -20.60217,17.21976 -28.3421,17.21976 -3.47795,0 -6.32354,-1.0388 -6.32354,-2.3085 0,-1.2696 1.65181,-2.3084 3.67069,-2.3084 4.87343,0 11.68789,-15.12539 11.71478,-26.00215 0.0195,-7.86749 -13.37225,-24.6793 -19.71868,-24.75463 -1.32404,-0.0157 -3.50073,3.3475 -4.83711,7.47381 -3.76717,11.63185 -14.78719,32.65128 -18.39591,35.08807 -1.88349,1.27183 -3.24768,-0.004 -3.24768,-3.03728 0,-2.87667 -1.85356,-7.306 -4.11903,-9.84296 -3.95089,-11.05197 -4.16467,-19.90079 -3.63704,-31.44153 -0.0746,-28.63008 -1.35493,-30.58665 -20.01593,-30.58665 -12.078991,0 -15.744321,0.97632 -17.332824,4.61685 -3.333887,7.64063 -7.208828,5.3933 -19.799908,-11.4832 C 52.069499,899.48472 51.4727,897.18271 50.331799,863.91544 c -0.657193,-19.16295 -0.126338,-35.23752 1.179679,-35.72127 6.811983,-2.52316 23.007404,17.24561 23.007404,28.08374 0,4.43929 2.016539,5.4266 11.083589,5.4266 17.034109,0 21.872349,-5.04061 16.136069,-16.81095 -2.609654,-5.35478 -6.478105,-13.89112 -8.596561,-18.96966 -2.118456,-5.07853 -5.607148,-12.92526 -7.752651,-17.43715 -4.663593,-9.80733 -3.068969,-18.77526 3.571547,-20.08592 2.646957,-0.52244 5.983941,0.95438 7.415525,3.28183 1.431583,2.32744 5.33238,6.77164 8.66844,9.876 3.33605,3.10436 8.84898,10.8953 12.25095,17.31319 l 6.18539,11.6689 4.773,-6.92527 c 15.54541,-18.87327 16.48558,-37.13726 35.17137,-40.33406 1.2334,-0.0349 4.05423,3.47438 6.26851,7.79834 3.38712,6.61426 2.2673,11.05737 -7.05723,28.00098 -6.09575,11.07659 -11.08318,25.19827 -11.08318,31.38151 l 0,11.24226 19.25869,0 c 10.59228,0 19.4822,-0.7791 19.75537,-1.73132 0.27316,-0.95223 1.03453,-4.3283 1.69193,-7.50239 3.16979,-15.30479 8.82546,-22.9026 17.15719,-23.04891 4.61431,-0.081 11.46141,25.64724 11.37395,42.73813 -0.10712,20.92892 -5.23223,36.92657 -13.39791,41.82043 -3.06848,1.839 -15.18098,3.7627 -26.91664,4.27488 -11.73566,0.51218 -23.0442,1.56337 -25.13008,2.33598 -2.08587,0.77261 -3.7925,5.37258 -3.7925,10.22215 0,7.64144 1.55758,9.20408 11.67872,11.71662 6.42329,1.59456 12.55746,2.37255 13.63148,1.72887 1.07402,-0.64368 -0.63808,-5.67721 -3.80466,-11.18561 -3.16659,-5.5084 -4.96494,-10.49023 -3.99634,-11.07073 2.78903,-1.67152 22.09464,4.90981 31.60046,10.77268 7.14902,4.40926 8.66641,7.92262 8.66641,20.06609 0,10.00738 1.84996,15.82966 5.77761,18.18358 3.17768,1.90446 5.77761,4.07851 5.77761,4.83124 0,0.75272 4.45487,5.40307 9.89971,10.33411 11.76642,10.65608 22.38012,33.28929 19.18672,40.91479 -2.74385,6.552 -13.6334,7.1814 -16.35447,0.9452 z M 117.10099,894.8069 c 3.01534,-13.53895 -1.35438,-19.25184 -14.72547,-19.25184 -15.37362,0 -20.153161,3.90369 -20.153161,16.46011 0,9.47719 1.144983,11.05732 8.666411,11.96006 19.7601,2.37166 23.97003,0.89914 26.21222,-9.16833 z m 58.52602,6.01947 14.44402,-2.40406 0,-14.02471 c 0,-10.90219 -1.07196,-13.51483 -4.81467,-11.73462 -2.64807,1.25955 -11.20243,2.9794 -19.00968,3.8219 -9.7244,1.04938 -14.259,2.77998 -14.39819,5.49496 -0.11174,2.17972 -1.28007,7.85861 -2.59628,12.61974 -2.7146,9.81954 0.38799,10.55202 26.3748,6.22679 z"
       id="path3103"
       inkscape:connector-curvature="0"
       sodipodi:nodetypes="sssssssscsssccsssssssssssssscccssscscsssssssssssssssssssssssscssssss" />
  </g>
</svg>
