<?xml version="1.0" encoding="UTF-8" standalone="no"?>
<!-- Created with Inkscape (http://www.inkscape.org/) -->

<svg
   xmlns:dc="http://purl.org/dc/elements/1.1/"
   xmlns:cc="http://creativecommons.org/ns#"
   xmlns:rdf="http://www.w3.org/1999/02/22-rdf-syntax-ns#"
   xmlns:svg="http://www.w3.org/2000/svg"
   xmlns="http://www.w3.org/2000/svg"
   xmlns:sodipodi="http://sodipodi.sourceforge.net/DTD/sodipodi-0.dtd"
   xmlns:inkscape="http://www.inkscape.org/namespaces/inkscape"
   width="300"
   height="300"
   id="svg2"
   version="1.1"
   inkscape:version="0.48.2 r9819"
   sodipodi:docname="å¤-bronze.svg">
  <defs
     id="defs4" />
  <sodipodi:namedview
     id="base"
     pagecolor="#ffffff"
     bordercolor="#666666"
     borderopacity="1.0"
     inkscape:pageopacity="0.0"
     inkscape:pageshadow="2"
     inkscape:zoom="1.979899"
     inkscape:cx="161.69077"
     inkscape:cy="131.22658"
     inkscape:document-units="px"
     inkscape:current-layer="layer1"
     showgrid="false"
     inkscape:window-width="1280"
     inkscape:window-height="999"
     inkscape:window-x="0"
     inkscape:window-y="24"
     inkscape:window-maximized="1" />
  <metadata
     id="metadata7">
    <rdf:RDF>
      <cc:Work
         rdf:about="">
        <dc:format>image/svg+xml</dc:format>
        <dc:type
           rdf:resource="http://purl.org/dc/dcmitype/StillImage" />
        <dc:title></dc:title>
      </cc:Work>
    </rdf:RDF>
  </metadata>
  <g
     inkscape:label="Calque 1"
     inkscape:groupmode="layer"
     id="layer1"
     transform="translate(0,-752.36218)">
    <path
       style="fill:#000000"
       d="m 229.77979,1017.0227 c -1.88669,-6.7976 -6.97158,-7.7282 -34.74073,-6.3582 -51.55174,2.5435 -115.807299,-7.6953 -132.90033,-21.17714 -10.073715,-7.94546 -12.776492,-12.7018 -9.149611,-16.10147 5.197446,-4.87186 7.332965,-49.49375 2.581816,-53.94728 -3.272585,-3.06756 -6.298436,-85.95368 -3.414517,-93.53271 1.190397,-3.1284 4.977985,-5.688 8.416853,-5.688 6.206002,0 9.109025,12.33901 15.098996,64.17679 l 2.946397,25.49839 24.110866,5.21681 c 13.26098,2.86924 26.12874,5.21681 28.59503,5.21681 2.54245,0 4.48415,-29.43952 4.48415,-67.98745 0,-38.02226 2.03227,-69.16476 4.61095,-70.65864 7.02274,-4.0684 14.8127,13.11045 14.76027,32.55014 -0.0258,9.54973 2.56145,37.1143 5.74935,61.25459 l 5.79617,43.89143 22.1641,2.75599 c 12.19025,1.51578 24.34862,2.24144 27.0186,1.61256 2.66999,-0.62889 4.85451,-13.25527 4.85451,-28.05862 0,-14.80336 2.19575,-27.60485 4.87943,-28.44779 7.05446,-2.21574 15.60113,19.65628 18.96637,48.53739 8.97443,77.02 9.00269,80.0133 0.89418,94.7111 -9.08975,16.4765 -12.56296,17.9202 -15.72285,6.5353 z m -6.58987,-46.64161 0,-22.75199 -29.12707,0 -29.12707,0 0,20.14314 c 0,22.38859 2.33557,23.9302 37.62247,24.833 l 20.63167,0.52785 0,-22.752 z M 140.5889,966.9683 c -0.10527,-24.16741 -3.83265,-27.37099 -33.90726,-29.1425 l -26.699804,-1.57271 -1.495306,19.38817 c -1.285756,16.67121 0.07481,19.97855 9.709022,23.60116 6.162379,2.31715 20.488588,4.3428 31.836008,4.50145 l 20.63167,0.28842 -0.0744,-17.06399 z"
       id="path3092"
       inkscape:connector-curvature="0" />
  </g>
</svg>
