<?xml version="1.0" encoding="UTF-8" standalone="no"?>
<!-- Created with Inkscape (http://www.inkscape.org/) -->
<svg
   xmlns:dc="http://purl.org/dc/elements/1.1/"
   xmlns:cc="http://web.resource.org/cc/"
   xmlns:rdf="http://www.w3.org/1999/02/22-rdf-syntax-ns#"
   xmlns:svg="http://www.w3.org/2000/svg"
   xmlns="http://www.w3.org/2000/svg"
   xmlns:sodipodi="http://sodipodi.sourceforge.net/DTD/sodipodi-0.dtd"
   xmlns:inkscape="http://www.inkscape.org/namespaces/inkscape"
   id="svg2471"
   sodipodi:version="0.32"
   inkscape:version="0.45.1"
   width="300"
   height="300"
   version="1.0"
   sodipodi:docbase="/home/michelet/Images/Temp"
   sodipodi:docname="冬-oracle.svg"
   inkscape:output_extension="org.inkscape.output.svg.inkscape">
  <metadata
     id="metadata2476">
    <rdf:RDF>
      <cc:Work
         rdf:about="">
        <dc:format>image/svg+xml</dc:format>
        <dc:type
           rdf:resource="http://purl.org/dc/dcmitype/StillImage" />
      </cc:Work>
    </rdf:RDF>
  </metadata>
  <defs
     id="defs2474" />
  <sodipodi:namedview
     inkscape:window-height="598"
     inkscape:window-width="822"
     inkscape:pageshadow="2"
     inkscape:pageopacity="0.0"
     guidetolerance="10.0"
     gridtolerance="10.0"
     objecttolerance="10.0"
     borderopacity="1.0"
     bordercolor="#666666"
     pagecolor="#ffffff"
     id="base"
     width="300px"
     height="300px"
     inkscape:zoom="1.0719739"
     inkscape:cx="70.390604"
     inkscape:cy="128.52105"
     inkscape:window-x="0"
     inkscape:window-y="27"
     inkscape:current-layer="svg2471" />
  <path
     style="fill:#000000"
     d="M 75.34803,275.20151 C 76.460249,256.86735 59.36772,245.76164 50.868443,231.57534 C 41.464188,220.66327 41.400367,202.95897 53.543328,194.01961 C 59.148466,184.45094 70.495222,178.90319 71.817254,167.25321 C 76.093092,148.2298 78.876539,128.87978 84.637602,110.19873 C 93.914374,77.520055 107.65099,45.651681 127.55774,18.058529 C 141.01625,12.204303 152.47413,28.354918 161.82051,36.255809 C 174.38943,51.498687 182.90521,69.557834 194.88142,85.254827 C 203.73977,96.997463 210.12943,110.24567 217.40939,122.91613 C 227.20749,139.1458 239.10146,154.3627 247.04484,171.56102 C 253.09718,184.26408 257.85539,197.87478 253.54696,211.95364 C 249.32584,233.44379 235.35469,251.4349 221.45742,267.63545 C 209.22486,277.94775 206.94154,259.51212 204.40662,251.19533 C 200.44196,237.59005 194.36499,223.56129 196.24103,209.18006 C 201.97889,195.41459 209.9485,182.59034 216.99902,170.08034 C 220.89026,154.83138 209.43791,143.07516 203.63811,130.32927 C 196.17661,111.1397 181.20897,96.312299 170.77052,78.957053 C 162.68245,63.495282 154.41097,47.358746 140.62979,36.128888 C 127.58837,38.709134 125.35433,55.737965 118.42139,65.215149 C 104.73548,95.60648 94.9973,127.96371 90.564402,161.007 C 88.842611,177.66125 102.88547,189.56627 110.19429,203.00244 C 121.37319,213.87714 110.14299,226.574 105.99125,237.98658 C 100.06154,249.66997 96.23863,262.25533 91.659726,274.41727 C 88.970763,284.05748 72.849003,292.70242 75.303171,277.02325 C 75.318124,276.416 75.333077,275.80876 75.34803,275.20151 z M 92.288292,232.98381 C 99.276352,219.00233 98.270852,200.81325 86.130567,190.03195 C 73.608487,186.27486 59.857533,204.32163 60.783152,216.28641 C 64.378143,227.57473 71.100656,240.70907 82.393615,245.63058 C 90.189051,246.84035 89.667116,237.6348 92.288292,232.98381 z M 224.90063,235.2395 C 232.53226,222.6973 237.43656,207.559 234.79167,192.9333 C 234.38031,182.28405 222.70355,183.69666 224.14489,194.2368 C 218.84864,206.99296 202.46175,221.65228 215.45842,235.31753 C 217.93832,239.4493 224.84517,243.45208 224.90063,235.2395 z "
     id="path2480" />
</svg>
