<?xml version="1.0" encoding="utf-8"?>
<!-- Generator: Adobe Illustrator 15.1.0, SVG Export Plug-In . SVG Version: 6.00 Build 0)  -->
<!DOCTYPE svg PUBLIC "-//W3C//DTD SVG 1.1//EN" "http://www.w3.org/Graphics/SVG/1.1/DTD/svg11.dtd">
<svg version="1.1" id="Layer_1" xmlns="http://www.w3.org/2000/svg" xmlns:xlink="http://www.w3.org/1999/xlink" x="0px" y="0px"
	 width="109px" height="109px" viewBox="0 0 109 109" enable-background="new 0 0 109 109" xml:space="preserve">
<g id="kvg:StrokePaths_04e8e" xmlns:kvg="http://kanjivg.tagaini.net">
	<g id="kvg:04e8e" xmlns:kvg="http://kanjivg.tagaini.net" kvg:element="于">
		<g id="kvg:04e8e-g1" xmlns:kvg="http://kanjivg.tagaini.net" kvg:element="二" kvg:radical="tradit">
			<g id="kvg:04e8e-g2" xmlns:kvg="http://kanjivg.tagaini.net" kvg:element="一" kvg:position="top" kvg:radical="nelson">
				
					<path id="kvg:04e8e-s1" xmlns:kvg="http://kanjivg.tagaini.net" kvg:type="㇐" fill="none" stroke="#000000" stroke-width="3" stroke-linecap="round" stroke-linejoin="round" d="
					M22.51,18.78c1.09,0.39,3.09,0.45,4.18,0.39c7.56-0.42,44.99-4.48,55.36-4.48c1.82,0,2.91,0.19,3.82,0.38"/>
			</g>
			<g id="kvg:04e8e-g3" xmlns:kvg="http://kanjivg.tagaini.net" kvg:position="bottom">
				
					<path id="kvg:04e8e-s2" xmlns:kvg="http://kanjivg.tagaini.net" kvg:type="㇐" fill="none" stroke="#000000" stroke-width="3" stroke-linecap="round" stroke-linejoin="round" d="
					M12.75,46.99c1.63,0.57,4.61,0.64,6.23,0.57C32.5,47,75,42.5,92.561,42.56c2.709,0.01,4.33,0.27,5.689,0.56"/>
			</g>
		</g>
		<g id="kvg:04e8e-g4" xmlns:kvg="http://kanjivg.tagaini.net" kvg:element="亅">
			
				<path id="kvg:04e8e-s3" xmlns:kvg="http://kanjivg.tagaini.net" kvg:type="㇚" fill="none" stroke="#000000" stroke-width="3" stroke-linecap="round" stroke-linejoin="round" d="
				M53.58,19.33c0.67,0.89,1.91,2.92,1.98,5.88c0.31,14.24-0.201,60.51-0.201,65.36c0,10.26-6.919,0.199-7.799-0.73"/>
		</g>
	</g>
</g>
</svg>
